<svg width="16" height="16" viewBox="0 0 16 16" fill="none" xmlns="http://www.w3.org/2000/svg">
<path d="M14.922 12C15.6073 10.8227 16 9.461 16 8C16 3.582 12.418 0 8 0C3.582 0 0 3.582 0 8C0 12.418 3.582 16 8 16C10.209 16 12.209 15.1053 13.656 13.656L12.24 12.24C11.1543 13.328 9.65433 14 8 14C4.69167 14 2 11.3083 2 8C2 4.69167 4.69133 2 8 2C11.3087 2 14 4.69133 14 8C14 8.711 13.8633 9.39033 13.635 10.0237L13.619 10H12V4.02133H8C5.791 4.02133 4 5.81233 4 8.02133C4 10.2303 5.791 12.0213 8 12.0213C8.918 12.0213 9.754 11.699 10.4293 11.1793C10.7927 11.6637 11.3473 12 11.9997 12H14.9217H14.922ZM10 7.004V8.02133C10 9.125 9.10133 10.0213 8 10.0213C6.89867 10.0213 6 9.125 6 8.02133C6 6.91767 6.89867 6.02133 8 6.02133H10V7.004Z" fill="#00C658"/>
</svg>
