<svg width="20" height="20" viewBox="0 0 20 20" fill="none" xmlns="http://www.w3.org/2000/svg">
<g clip-path="url(#clip0)">
<path d="M19.8678 9.67986L15.3225 5.13448C15.1592 4.94381 14.8722 4.92159 14.6816 5.08491C14.4909 5.24818 14.4687 5.53513 14.632 5.72579C14.6472 5.74357 14.6638 5.76017 14.6816 5.77536L18.4497 9.54803H0.454523C0.203512 9.54803 0 9.75154 0 10.0026C0 10.2536 0.203512 10.4571 0.454523 10.4571H18.4497L14.6816 14.2252C14.4909 14.3885 14.4687 14.6754 14.632 14.8661C14.7953 15.0568 15.0822 15.079 15.2729 14.9157C15.2907 14.9004 15.3073 14.8839 15.3225 14.8661L19.8679 10.3207C20.0441 10.1435 20.0441 9.85717 19.8678 9.67986Z" fill="white"/>
</g>
<defs>
<clipPath id="clip0">
<rect width="20" height="20" fill="white"/>
</clipPath>
</defs>
</svg>
