<svg width="80" height="80" viewBox="0 0 80 80" fill="none" xmlns="http://www.w3.org/2000/svg">
<path d="M70.7401 61.3844C70.7401 46.0133 78.7023 35.4578 78.7023 28.0511C78.7023 20.6444 74.4446 5.08887 40.3712 5.08887C6.29788 5.08887 1.29565 26.0155 1.29565 34.1622C1.29565 72.3111 70.7401 88.6066 70.7401 61.3844Z" fill="#EFF1F3"/>
<path d="M70.0001 42.2222C68.1623 42.2222 66.6667 40.7267 66.6667 38.8889C66.6667 37.0511 68.1623 35.5555 70.0001 35.5555C71.8379 35.5555 73.3334 37.0511 73.3334 38.8889C73.3334 40.7267 71.8379 42.2222 70.0001 42.2222ZM70.0001 37.7778C69.3868 37.7778 68.889 38.2778 68.889 38.8889C68.889 39.5 69.3868 40 70.0001 40C70.6134 40 71.1112 39.5 71.1112 38.8889C71.1112 38.2778 70.6134 37.7778 70.0001 37.7778Z" fill="#ACB1BA"/>
<path d="M48.3335 65H19.4446V19.4444C19.4446 16.9889 21.4335 15 23.889 15H59.4446C56.3757 15 53.889 17.4867 53.889 20.5556V59.4444C53.889 62.5133 51.4024 65 48.3335 65Z" fill="#F3F3F1"/>
<path d="M38.9978 32.7711L40.5556 40.5555L32.7712 38.9977L15.6445 21.8733C14.7845 21.0133 14.7845 19.6199 15.6445 18.7599L18.7578 15.6444C19.6178 14.7844 21.0112 14.7844 21.8712 15.6444L38.9978 32.7711Z" fill="#00C658"/>
<path d="M53.8889 23.8889H65V20.5556C65 17.4867 62.5134 15 59.4445 15C56.3756 15 53.8889 17.4867 53.8889 20.5556V23.8889Z" fill="#00C658"/>
<path d="M48.3333 64.9999H19.4444C16.9889 64.9999 15 63.011 15 60.5555V53.8888H42.7778V59.4444C42.7778 62.5132 45.2645 64.9999 48.3333 64.9999Z" fill="#00C658"/>
<path d="M37.7712 38.9977L20.6445 21.8733C19.7845 21.0133 19.7845 19.6199 20.6445 18.7599L22.8156 16.5888L21.8734 15.6444C21.0134 14.7844 19.6201 14.7844 18.7601 15.6444L15.6445 18.7577C14.7845 19.6177 14.7845 21.0111 15.6445 21.8711L32.7712 38.9977L40.5556 40.5555L40.3467 39.5133L37.7712 38.9977Z" fill="#19D86E"/>
<path d="M61.9445 15.62C61.1889 15.2378 60.3489 15 59.4445 15C56.3756 15 53.8889 17.4867 53.8889 20.5556V23.8889H58.8889V20.5556C58.8889 18.3911 60.14 16.5378 61.9445 15.62Z" fill="#19D86E"/>
<path d="M20 60.5556V53.8889H15V60.5556C15 63.0111 16.9889 65 19.4444 65H24.4444C21.9889 65 20 63.0111 20 60.5556Z" fill="#19D86E"/>
<path d="M19.4446 25V53.8889H24.4446V31.1111L19.4446 25Z" fill="#DFE0E1"/>
<path d="M40.5555 42.2223C40.4466 42.2223 40.3377 42.2112 40.2288 42.189L32.4444 40.6334C32.1222 40.569 31.8244 40.409 31.5933 40.1779L14.4666 23.0512C12.9577 21.5423 12.9577 19.089 14.4666 17.5801L17.58 14.4667C19.0866 12.9601 21.54 12.9534 23.0488 14.4667L40.1755 31.5934C40.4088 31.8245 40.5666 32.1223 40.6311 32.4445L42.1888 40.229C42.2977 40.7756 42.1266 41.3401 41.7333 41.7356C41.4177 42.049 40.9933 42.2223 40.5555 42.2223ZM33.5933 37.4623L38.4311 38.4312L37.4622 33.5934L20.6955 16.8223C20.4866 16.6134 20.1466 16.6134 19.9377 16.8223L16.8222 19.9378C16.6133 20.1467 16.6133 20.4867 16.8222 20.6956L33.5933 37.4623Z" fill="#3C4658"/>
<path d="M17.7777 35.0889H21.111V53.9777H17.7777V35.0889Z" fill="#3C4658"/>
<path d="M30.6444 13.3333H59.4444V16.6666H30.6444V13.3333Z" fill="#3C4658"/>
<path d="M65.0001 25.5555H53.889C52.969 25.5555 52.2223 24.8088 52.2223 23.8888V20.5555C52.2223 16.5733 55.4623 13.3333 59.4445 13.3333C63.4267 13.3333 66.6667 16.5733 66.6667 20.5555V23.8888C66.6667 24.8088 65.9201 25.5555 65.0001 25.5555ZM55.5556 22.2221H63.3334V20.5555C63.3334 18.411 61.5889 16.6666 59.4445 16.6666C57.3001 16.6666 55.5556 18.411 55.5556 20.5555V22.2221Z" fill="#3C4658"/>
<path d="M48.8889 66.6667H19.4445C16.0734 66.6667 13.3334 63.9267 13.3334 60.5556V53.9823C13.3334 53.0623 14.08 52.3156 15 52.3156H42.7778C43.6978 52.3156 44.4445 53.0623 44.4445 53.9823V59.4445C44.4445 61.5889 46.1889 63.3334 48.3334 63.3334C50.4778 63.3334 52.2223 61.5889 52.2223 59.4445V23.8889H55.5556V59.4445C55.5556 63.24 52.6134 66.36 48.8889 66.6445V66.6667ZM16.6667 55.6489V60.5556C16.6667 62.0867 17.9134 63.3334 19.4445 63.3334H42.2489C41.5289 62.2089 41.1112 60.8756 41.1112 59.4445V55.6489H16.6667Z" fill="#3C4658"/>
<path d="M4.44458 63.3333H75.5557V66.6666H4.44458V63.3333Z" fill="#3C4658"/>
</svg>
