<svg width="14" height="14" viewBox="0 0 14 14" fill="none" xmlns="http://www.w3.org/2000/svg">
<g clip-path="url(#clip0)">
<path d="M6.69033 13.8885C6.8704 14.0372 7.1305 14.0372 7.31056 13.8885C10.2145 11.4762 11.5093 9.25824 12.0723 7.92632C12.2353 7.57476 12.361 7.20319 12.4496 6.81733C12.4753 6.703 12.4868 6.64298 12.4868 6.64298C12.5525 6.29999 12.5868 5.94558 12.5868 5.58258C12.584 2.43569 9.97442 -0.105255 6.79894 0.00335701C4.0179 0.100536 1.70847 2.26992 1.4398 5.03952C1.38549 5.59402 1.41693 6.13136 1.51411 6.64298C1.51411 6.64298 1.52269 6.703 1.55127 6.81733C1.63702 7.20319 1.76563 7.57476 1.92855 7.92632C2.49162 9.25538 3.78353 11.4762 6.69033 13.8885ZM3.60061 5.65118C3.60061 3.77619 5.12117 2.25277 6.99902 2.25277C8.87686 2.25277 10.3974 3.77334 10.3974 5.65118C10.3974 7.52902 8.874 9.04673 6.99902 9.04673C5.12403 9.04673 3.60061 7.52617 3.60061 5.65118Z" fill="#00C658"/>
</g>
<defs>
<clipPath id="clip0">
<rect width="14" height="14" fill="white"/>
</clipPath>
</defs>
</svg>
