<svg width="16" height="16" viewBox="0 0 16 16" fill="none" xmlns="http://www.w3.org/2000/svg">
<g clip-path="url(#clip0)">
<path d="M7.64609 15.8726C7.85188 16.0425 8.14914 16.0425 8.35493 15.8726C11.6737 13.1157 13.1535 10.5808 13.797 9.05865C13.9832 8.65687 14.1269 8.23222 14.2281 7.79124C14.2575 7.66057 14.2706 7.59198 14.2706 7.59198C14.3457 7.19999 14.3849 6.79495 14.3849 6.3801C14.3817 2.78365 11.3993 -0.120291 7.77022 0.00383659C4.59189 0.114898 1.95254 2.59419 1.64548 5.75946C1.58342 6.39316 1.61935 7.00727 1.73041 7.59198C1.73041 7.59198 1.74021 7.66057 1.77288 7.79124C1.87087 8.23222 2.01787 8.65687 2.20406 9.05865C2.84757 10.5776 4.32404 13.1157 7.64609 15.8726ZM4.11498 6.45849C4.11498 4.31565 5.85277 2.57459 7.99888 2.57459C10.145 2.57459 11.8828 4.31239 11.8828 6.45849C11.8828 8.6046 10.1417 10.3391 7.99888 10.3391C5.85604 10.3391 4.11498 8.60133 4.11498 6.45849Z" fill="#00C658"/>
</g>
<defs>
<clipPath id="clip0">
<rect width="16" height="16" fill="white"/>
</clipPath>
</defs>
</svg>
