<svg width="11" height="10" viewBox="0 0 11 10" fill="none" xmlns="http://www.w3.org/2000/svg">
<path d="M10.0601 5.51C10.0601 5.654 10.0361 5.756 9.98812 5.816C9.95212 5.864 9.86812 5.888 9.73612 5.888H6.71212V9.056C6.71212 9.188 6.68812 9.278 6.64012 9.326C6.60412 9.362 6.50212 9.38 6.33412 9.38H4.66012C4.52812 9.38 4.43212 9.362 4.37212 9.326C4.31212 9.278 4.28212 9.188 4.28212 9.056V5.888H1.25812C1.12612 5.888 1.03612 5.864 0.988117 5.816C0.952117 5.756 0.934117 5.654 0.934117 5.51V4.124C0.934117 3.956 0.952117 3.848 0.988117 3.8C1.03612 3.752 1.12612 3.728 1.25812 3.728H4.28212V0.559999C4.28212 0.427999 4.31212 0.344 4.37212 0.307999C4.43212 0.259999 4.52812 0.235999 4.66012 0.235999H6.33412C6.50212 0.235999 6.60412 0.259999 6.64012 0.307999C6.68812 0.344 6.71212 0.427999 6.71212 0.559999V3.728H9.73612C9.86812 3.728 9.95212 3.752 9.98812 3.8C10.0361 3.848 10.0601 3.956 10.0601 4.124V5.51Z" fill="#3C4658"/>
</svg>
