<svg width="20" height="20" viewBox="0 0 20 20" fill="none" xmlns="http://www.w3.org/2000/svg">
<g clip-path="url(#clip0)">
<path d="M0.132183 9.67986L4.67753 5.13448C4.84081 4.94381 5.12776 4.92159 5.31842 5.08491C5.50908 5.24818 5.53131 5.53513 5.36799 5.72579C5.35276 5.74357 5.33619 5.76017 5.31842 5.77536L1.55032 9.54803H19.5455C19.7965 9.54803 20 9.75154 20 10.0026C20 10.2536 19.7965 10.4571 19.5455 10.4571H1.55032L5.31842 14.2252C5.50908 14.3885 5.53131 14.6754 5.36799 14.8661C5.20467 15.0568 4.91776 15.079 4.7271 14.9157C4.70933 14.9004 4.69273 14.8839 4.67753 14.8661L0.132143 10.3207C-0.0440655 10.1435 -0.0440636 9.85717 0.132183 9.67986Z" fill="white"/>
</g>
<defs>
<clipPath id="clip0">
<rect width="20" height="20" fill="white" transform="matrix(-1 0 0 1 20 0)"/>
</clipPath>
</defs>
</svg>
