<svg width="9" height="7" viewBox="0 0 9 7" fill="none" xmlns="http://www.w3.org/2000/svg">
<path d="M8.84412 2.728C8.84412 2.86 8.82012 2.956 8.77212 3.016C8.73612 3.076 8.65212 3.106 8.52012 3.106H0.474117C0.246117 3.106 0.132117 2.98 0.132117 2.728V1.342C0.132117 1.186 0.150117 1.084 0.186117 1.036C0.234117 0.987999 0.330117 0.963999 0.474117 0.963999H8.52012C8.65212 0.963999 8.73612 0.987999 8.77212 1.036C8.82012 1.084 8.84412 1.186 8.84412 1.342V2.728ZM8.86212 6.454C8.86212 6.586 8.83812 6.688 8.79012 6.76C8.75412 6.82 8.67012 6.85 8.53812 6.85H0.474117C0.246117 6.85 0.132117 6.73 0.132117 6.49V5.068C0.132117 4.936 0.150117 4.846 0.186117 4.798C0.222117 4.75 0.306117 4.726 0.438117 4.726H8.55612C8.68812 4.726 8.77212 4.756 8.80812 4.816C8.84412 4.864 8.86212 4.954 8.86212 5.086V6.454Z" fill="#3C4658"/>
</svg>
